<mxfile host="app.diagrams.net" modified="2022-09-16T12:08:07.389Z" agent="5.0 (Macintosh; Intel Mac OS X 10_15_7) AppleWebKit/537.36 (KHTML, like Gecko) Chrome/105.0.0.0 Safari/537.36" etag="9lrlMkNC3ENVZpOIOsY9" version="20.3.0" type="github">
  <diagram id="33OM2XWxTB5mUzlMFCuf" name="Страница 1">
    <mxGraphModel dx="1234" dy="719" grid="1" gridSize="10" guides="1" tooltips="1" connect="1" arrows="1" fold="1" page="1" pageScale="1" pageWidth="827" pageHeight="1169" math="0" shadow="0">
      <root>
        <mxCell id="0" />
        <mxCell id="1" parent="0" />
        <mxCell id="eUqRQT6pX5e4oYutUBVg-1" value="" style="sketch=0;html=1;dashed=0;whitespace=wrap;fillColor=#2875E2;strokeColor=#ffffff;points=[[0.005,0.63,0],[0.1,0.2,0],[0.9,0.2,0],[0.5,0,0],[0.995,0.63,0],[0.72,0.99,0],[0.5,1,0],[0.28,0.99,0]];shape=mxgraph.kubernetes.icon;prIcon=cronjob" vertex="1" parent="1">
          <mxGeometry x="180" y="245" width="50" height="48" as="geometry" />
        </mxCell>
        <mxCell id="eUqRQT6pX5e4oYutUBVg-2" value="Spring Cloud Task" style="rounded=1;whiteSpace=wrap;html=1;sketch=1;fillColor=#dae8fc;strokeColor=#6c8ebf;" vertex="1" parent="1">
          <mxGeometry x="300" y="250" width="110" height="52" as="geometry" />
        </mxCell>
        <mxCell id="eUqRQT6pX5e4oYutUBVg-3" value="" style="endArrow=classic;html=1;rounded=0;entryX=0;entryY=0.5;entryDx=0;entryDy=0;exitX=0.995;exitY=0.63;exitDx=0;exitDy=0;exitPerimeter=0;" edge="1" parent="1" source="eUqRQT6pX5e4oYutUBVg-1" target="eUqRQT6pX5e4oYutUBVg-2">
          <mxGeometry width="50" height="50" relative="1" as="geometry">
            <mxPoint x="390" y="390" as="sourcePoint" />
            <mxPoint x="440" y="340" as="targetPoint" />
          </mxGeometry>
        </mxCell>
        <mxCell id="eUqRQT6pX5e4oYutUBVg-4" value="USD exchange rate API" style="rounded=1;whiteSpace=wrap;html=1;sketch=1;fillColor=#e1d5e7;strokeColor=#9673a6;" vertex="1" parent="1">
          <mxGeometry x="470" y="245" width="140" height="62" as="geometry" />
        </mxCell>
        <mxCell id="eUqRQT6pX5e4oYutUBVg-6" value="" style="endArrow=classic;startArrow=classic;html=1;rounded=0;entryX=0;entryY=0.5;entryDx=0;entryDy=0;exitX=1;exitY=0.5;exitDx=0;exitDy=0;" edge="1" parent="1" source="eUqRQT6pX5e4oYutUBVg-2" target="eUqRQT6pX5e4oYutUBVg-4">
          <mxGeometry width="50" height="50" relative="1" as="geometry">
            <mxPoint x="390" y="390" as="sourcePoint" />
            <mxPoint x="440" y="340" as="targetPoint" />
          </mxGeometry>
        </mxCell>
        <mxCell id="eUqRQT6pX5e4oYutUBVg-7" value="Kafka" style="rounded=1;whiteSpace=wrap;html=1;sketch=1;fillColor=#f8cecc;strokeColor=#b85450;" vertex="1" parent="1">
          <mxGeometry x="300" y="370" width="110" height="52" as="geometry" />
        </mxCell>
        <mxCell id="eUqRQT6pX5e4oYutUBVg-8" value="exchange rate event" style="endArrow=classic;html=1;rounded=0;exitX=0.5;exitY=1;exitDx=0;exitDy=0;entryX=0.5;entryY=0;entryDx=0;entryDy=0;" edge="1" parent="1" source="eUqRQT6pX5e4oYutUBVg-2" target="eUqRQT6pX5e4oYutUBVg-7">
          <mxGeometry width="50" height="50" relative="1" as="geometry">
            <mxPoint x="390" y="390" as="sourcePoint" />
            <mxPoint x="440" y="340" as="targetPoint" />
          </mxGeometry>
        </mxCell>
        <mxCell id="eUqRQT6pX5e4oYutUBVg-14" style="edgeStyle=orthogonalEdgeStyle;rounded=0;orthogonalLoop=1;jettySize=auto;html=1;exitX=1;exitY=0.5;exitDx=0;exitDy=0;entryX=0.167;entryY=0.5;entryDx=0;entryDy=0;entryPerimeter=0;" edge="1" parent="1" source="eUqRQT6pX5e4oYutUBVg-9" target="eUqRQT6pX5e4oYutUBVg-12">
          <mxGeometry relative="1" as="geometry" />
        </mxCell>
        <mxCell id="eUqRQT6pX5e4oYutUBVg-9" value="Newway" style="rounded=1;whiteSpace=wrap;html=1;sketch=1;fillColor=#dae8fc;strokeColor=#6c8ebf;" vertex="1" parent="1">
          <mxGeometry x="480" y="370" width="110" height="52" as="geometry" />
        </mxCell>
        <mxCell id="eUqRQT6pX5e4oYutUBVg-10" value="events" style="endArrow=classic;html=1;rounded=0;entryX=0;entryY=0.5;entryDx=0;entryDy=0;exitX=1;exitY=0.5;exitDx=0;exitDy=0;" edge="1" parent="1" source="eUqRQT6pX5e4oYutUBVg-7" target="eUqRQT6pX5e4oYutUBVg-9">
          <mxGeometry width="50" height="50" relative="1" as="geometry">
            <mxPoint x="430" y="396" as="sourcePoint" />
            <mxPoint x="440" y="340" as="targetPoint" />
          </mxGeometry>
        </mxCell>
        <mxCell id="eUqRQT6pX5e4oYutUBVg-12" value="DB" style="shape=cylinder3;whiteSpace=wrap;html=1;boundedLbl=1;backgroundOutline=1;size=15;sketch=1;fillColor=none;" vertex="1" parent="1">
          <mxGeometry x="670" y="302" width="60" height="80" as="geometry" />
        </mxCell>
        <mxCell id="eUqRQT6pX5e4oYutUBVg-18" style="edgeStyle=orthogonalEdgeStyle;rounded=0;orthogonalLoop=1;jettySize=auto;html=1;exitX=1;exitY=0.5;exitDx=0;exitDy=0;" edge="1" parent="1" source="eUqRQT6pX5e4oYutUBVg-16" target="eUqRQT6pX5e4oYutUBVg-9">
          <mxGeometry relative="1" as="geometry" />
        </mxCell>
        <mxCell id="eUqRQT6pX5e4oYutUBVg-16" value="Grafana" style="ellipse;whiteSpace=wrap;html=1;aspect=fixed;sketch=1;fillColor=#f8cecc;strokeColor=#b85450;" vertex="1" parent="1">
          <mxGeometry x="400" y="470" width="80" height="80" as="geometry" />
        </mxCell>
      </root>
    </mxGraphModel>
  </diagram>
</mxfile>
